<?xml version="1.0" encoding="UTF-8" standalone="no"?>
<!-- Created with Inkscape (http://www.inkscape.org/) -->
<svg
   xmlns:svg="http://www.w3.org/2000/svg"
   xmlns="http://www.w3.org/2000/svg"
   version="1.0"
   width="956.69287"
   height="342.99213"
   id="svg2">
  <defs
     id="defs4" />
  <g
     transform="translate(373.1135,458.42539)"
     id="layer1">
    <g
       transform="translate(35.433051,35.377598)"
       id="g4899">
      <path
         d="M 512.70581,-186.18846 L 512.71327,-458.41793 L -373.1135,-458.42539 L -373.1135,-186.18846 L 512.70581,-186.18846"
         id="path4490"
         style="fill:#febd18;fill-opacity:1;fill-rule:nonzero;stroke:none" />
      <path
         d="M -334.9808,-420.28523 L 474.61784,-420.28523 L 474.61784,-404.93523 L -334.9808,-404.93523 L -334.9808,-420.28523 z"
         id="path4494"
         style="fill:#000000;fill-opacity:1;fill-rule:nonzero;stroke:none" />
      <path
         d="M -334.9808,-239.85008 L 474.58802,-239.85008 L 474.58802,-224.50754 L -334.9808,-224.50754 L -334.9808,-239.85008 z"
         id="path4496"
         style="fill:#000000;fill-opacity:1;fill-rule:nonzero;stroke:none" />
      <path
         d="M 351.7955,-397.2416 L 474.62529,-397.2416 L 474.62529,-354.9937 L 441.33094,-354.9937 L 441.33094,-247.86429 L 384.96312,-247.86429 L 384.96312,-354.9937 L 351.7955,-354.9937 L 351.7955,-397.2416"
         id="path4500"
         style="fill:#000000;fill-opacity:1;fill-rule:nonzero;stroke:none" />
      <path
         d="M 267.32951,-397.2416 L 267.32951,-247.86429 L 369.68022,-247.86429 L 369.68022,-292.38599 L 323.60786,-292.38599 L 323.60786,-397.2416 L 267.32951,-397.2416"
         id="path4504"
         style="fill:#000000;fill-opacity:1;fill-rule:nonzero;stroke:none" />
      <path
         d="M 152.06662,-397.26396 L 213.899,-397.26396 L 261.29836,-247.86428 L 206.22773,-247.86428 L 200.58424,-270.60226 L 166.05234,-270.60226 L 160.92325,-247.86428 L 103.42972,-247.86428 L 152.06662,-397.26396 z M 173.73106,-303.83698 L 192.91297,-303.83698 L 183.54194,-347.33733 L 173.73106,-303.83698"
         id="path4508"
         style="fill:#000000;fill-opacity:1;fill-rule:nonzero;stroke:none" />
      <path
         d="M 122.38797,-397.26396 L 67.376981,-397.26396 L 52.026984,-324.32352 L 35.379805,-397.26396 L -13.249641,-397.26396 L -28.935116,-324.32352 L -43.949634,-397.26396 L -98.893528,-397.26396 L -57.823527,-247.86428 L -6.8159123,-247.86428 L 10.338212,-320.75999 L 27.939641,-247.86428 L 80.177343,-247.86428 L 122.38797,-397.27142"
         id="path4512"
         style="fill:#000000;fill-opacity:1;fill-rule:nonzero;stroke:none" />
      <path
         d="M -179.88545,-365.27424 L -97.93928,-365.27424 L -97.93928,-334.52952 L -137.60027,-334.52952 L -137.60027,-321.77388 L -103.06837,-321.77388 L -103.06837,-291.02171 L -137.60027,-291.02171 L -137.60027,-278.27353 L -97.93928,-278.27353 L -97.93928,-247.86428 L -179.88545,-247.86428 L -179.88545,-365.27424"
         id="path4516"
         style="fill:#000000;fill-opacity:1;fill-rule:nonzero;stroke:none" />
      <path
         d="M -334.94353,-247.86429 L -334.94353,-397.26397 L -264.96275,-397.26397 C -223.63182,-397.26397 -190.76986,-374.7571 -190.76986,-322.25847 C -190.76986,-271.16885 -222.58811,-247.86429 -265.23114,-247.86429 L -334.94353,-247.86429 z M -277.17416,-292.60219 C -259.446,-292.60219 -247.73408,-300.04981 -247.73408,-322.75051 C -247.73408,-347.67282 -259.34163,-354.32274 -277.06234,-354.32274 L -281.58757,-354.32274 L -281.58757,-292.60219 L -277.17416,-292.60219"
         id="path4520"
         style="fill:#000000;fill-opacity:1;fill-rule:nonzero;stroke:none" />
      <path
         d="M 448.95002,-260.3068 C 448.95002,-267.32948 454.6457,-272.51076 461.37763,-272.51076 C 468.04992,-272.51076 473.7456,-267.32948 473.7456,-260.3068 C 473.7456,-253.21702 468.04992,-248.03575 461.37763,-248.03575 C 454.6457,-248.03575 448.95002,-253.21702 448.95002,-260.3068 z M 461.37763,-250.07098 C 466.91675,-250.07098 471.28542,-254.40984 471.28542,-260.3068 C 471.28542,-266.09939 466.91675,-270.46807 461.37763,-270.46807 C 455.78632,-270.46807 451.41019,-266.09939 451.41019,-260.3068 C 451.41019,-254.40984 455.78632,-250.07098 461.37763,-250.07098 z M 458.992,-258.71141 L 460.99742,-258.71141 L 463.66634,-254.20855 L 466.71546,-254.20855 L 463.57687,-258.89779 C 465.69412,-259.15872 467.1404,-260.46336 467.1404,-263.03536 C 467.1404,-265.18987 465.4481,-266.78526 462.04858,-266.78526 L 456.65111,-266.78526 L 456.65111,-254.20855 L 458.992,-254.20855 L 458.992,-258.71141 z M 458.992,-260.8212 L 458.992,-264.86185 L 461.72056,-264.86185 C 463.2414,-264.86185 464.95606,-264.76493 464.95606,-262.90862 C 464.95606,-260.79138 463.56942,-260.8212 461.71311,-260.8212 L 458.992,-260.8212"
         id="path4524"
         style="fill:#000000;fill-opacity:1;fill-rule:nonzero;stroke:none" />
    </g>
  </g>
</svg>
