<svg xmlns="http://www.w3.org/2000/svg" viewBox="0 0 942 565.9"><path fill="#00984A" d="M464.5 64.9c-4.7-6.4-9.5-11.9-13.3-18.1-3.3-5.3-6.2-11.1-7.8-17.1-3.1-11 3.2-19.9 14.6-19.7 8.3.2 14.9-.7 21.6-6.5 5.9-5.1 14.3-3.7 21.6-1.4 5.8 1.8 11.7 4 17 6.9 36.2 20.1 64.9 47.9 85.6 83.9 1.7 2.9 3.4 5.8 4.4 8.9 2.1 6.3 6.5 9.9 12.5 11.9 7.1 2.3 14.2 4.7 21.3 6.9 31 9.8 47 32.1 52.4 63.1 1 5.5 1.3 11.3.6 16.9-1.5 13.1-9 22.3-20.7 27.9-11 5.3-22.8 7.3-34.8 7.9-15.1.8-30.3.8-45.4 1.2-4 .1-7.9.4-12 1.3 2.7.8 5.5 1.5 8.1 2.5 8.4 3 14.8 8.3 18 16.8 3.5 9.4 0 19.4-9.1 23.8-5.2 2.5-11.4 3.3-17.2 4.2-2.7.4-4.3 1-5.8 3.5-23.9 40.4-58.7 65.5-105 74-69.3 12.7-139.2-26.5-165.7-92.3-11.9-29.6-15.8-59.6-7.1-90.8.4-1.5-.2-3.6-1.1-5-14.6-22.6-1.7-49.7 25-52.8 2.1-.2 4.6-1.7 6-3.4C362 79.7 404.8 60.9 457 64.1c2.2.5 4.6.6 7.5.8zm19.2-51.1c0 .5-.1 1.1-.1 1.6 23.2 9.5 41.8 25.1 59.2 42.5 23 23 41 48.8 40.9 58.9-2.5-3.4-5-7-7.7-10.3-20-23.4-42.9-43.7-67.4-62.2-7.9-6-16.7-11-25.7-15.2-6.9-3.2-14.7-5-22.3-6.4-5.1-.9-6.6 1-4.2 5.6 4.2 8 8.7 16.2 14.5 23.1 16.7 20 37.6 35.2 59.1 49.7 9.3 6.3 19 12.1 28.8 18.3-6.1 6.7-12.3 13-21.9 13.6-7.4.4-14-2.4-20.2-6.1-9.7-5.8-19.1-12.2-28.9-17.8-25-14.3-51.7-19.9-80.2-14.6-27.9 5.1-50.7 19.3-69.6 40.2-2.3 2.6-4.1 3.3-7.6 2.2-9.4-3-18.9.9-23.7 9-5 8.4-3.6 18.4 3.9 25.5 2.4 2.3 3 4.1 1.9 7.2-6.6 19.1-7.8 38.7-4.1 58.6 14.4 77.7 98.3 124.8 173 86.3 17.2-8.9 31.8-21.2 44.1-36.3-20.4-10.8-41.5-12.9-64-8.9 2.9-4.6 6-8.6 9.4-12.4 23-25.3 24.9-55.3 4.4-80.5-15.3-18.9-35.3-27.8-59.6-23.4-23.9 4.3-40.2 18.4-47.7 41.8-5.5 17.2-2.3 33.9 4 50.2 1.3 3.4 2.7 6.7 4.4 10.8-23.7-16.2-28.7-57-11.2-84.9 20.7-33 66.6-44.3 100.3-24.8 17.6 10.2 27.8 26 33.5 44.9 7.3 24.1 1.3 45.6-15.2 64.3 9.4 1.4 14.5-5.2 20.8-9.6 5.3-3.8 9.5-7.6 5.9-14.8-.1-.1.1-.3.2-.5.2 0 .4 0 .5.1.6.6 1.2 1.2 1.7 1.8 12.5 13.7 27.6 23.4 45.4 28.8 9.6 2.9 19.4 5 29.5 3.5 3.9-.6 7.6-1.8 8.8-6.2 1.2-4.5-1.2-8-4.6-10.2-3.9-2.4-8.3-4.2-12.7-5.5-7.7-2.3-14.5-5.9-20-11.7-7.1-7.6-11-18.6-9.4-26.8 6.2 8.8 11.1 19.8 24.9 12.8-7.3-10.9-9.1-15.4-8.7-22.1 3.8 3.6 7.5 7.1 11.4 10.5 7.9 6.9 17.1 10.9 27.7 11.1 7.3.1 14.7.1 22-.3 13.3-.7 26.6-1.4 39.2-6.5 11.9-4.8 17.2-12.6 16.9-25.4-.1-2.8-.4-5.6-1-8.4-4.8-25.9-18-44.8-44.2-52.7-4-1.2-7.9-2.6-11.9-3.7-14.6-3.7-24.4-11.5-31.6-25.9-18.8-37.3-48.4-64.8-85.2-84.4-4.6-2.5-9.9-4.1-15-5.1-3.4-.7-7.1.4-10.7.7zM425.6 562H393V427.7c11.1 0 22.1-.1 33 0 9.8.2 19.7 0 29.4 1.2 24.1 3.1 40.1 24.4 37.4 48.9-2.2 20-11.8 33.9-32.2 38.7 6.5 14.2 18.2 17.4 32.5 15.1v30.3c-19.7 2.2-37-2-50.1-17.9-5.6-6.7-10.9-13.6-17.4-21.7V562zm-.1-66.7c4.5 0 8.5.1 12.5 0 2.6-.1 5.3-.4 7.9-.9 8.9-2 14.1-8.6 14.3-17.9.1-8.9-4.9-15.9-13.9-17.5-6.6-1.2-13.4-1-20.3-1.5-.3 1.5-.5 2.1-.5 2.7v35.1z"/><path fill="#009749" d="M646.3 551.5v10.4h-29v-5.4V455c0-21.5 7.7-28.6 29.9-27.1v41c7.1-6 14.1-9.5 22.4-10.7 27.5-3.7 52.3 15.4 55.7 42.9 1.8 14.3.3 27.9-7 40.5-10.3 17.7-31.7 27.1-51.8 22.9-7.9-1.5-14.6-5.2-20.2-13zm.1-40.1c-.1 14.7 10.5 26.1 24.4 26.1s25-11.3 25.2-25.6c.2-14.1-10.6-25.5-24.3-25.8-14.1-.2-25.2 10.9-25.3 25.3zM764.2 428v40.2c24-16.1 51.5-12.5 67.8 8.5 23.4 30.1 8.4 78.2-27.2 87.4-16.4 4.2-30.7.4-41.6-11.7-.2 3.4-.3 6.3-.5 9.5H734v-5.6-101.4c.1-21.5 8-28.8 30.2-26.9zm-1.1 83.2c-.2 15 10 26.2 24 26.3 14 .2 25.1-11 25.3-25.3.2-14.6-10.5-25.9-24.4-26-14.1-.1-24.7 10.6-24.9 25z"/><path fill="#36614F" d="M156.3 471.2c3.2-8.5 5.2-9.9 13.9-9.9 5.2 0 10.3.1 15.5.1.3 0 .6.3 1.1.5v99.9c-7.5 0-14.9.4-22.3-.1-5-.3-6.6-4.8-7.9-9-26.5 25.3-68.8 11.9-78-24.7-5.3-21-2-40.6 14-56.3 12.2-12 27.4-16 44.2-12.8 7.8 1.5 14.3 5.5 19.5 12.3zm.3 40.5c0-14.7-10.4-25.3-25-25.4-14.3-.1-24.8 10.7-24.8 25.6-.1 14.4 11 25.7 25 25.6 14.3-.1 24.8-11.1 24.8-25.8z"/><path fill="#009749" d="M573.6 471.5c3.2-8.9 5-10.1 14.2-10.1h16.1v100.7c-7 0-13.8.3-20.6-.1-5.9-.3-8.3-4.6-9.4-10-13.4 15.2-35.7 18.5-54.5 7.3-19.4-11.5-26.3-29.7-25.2-51.3 1-20.5 10.2-36.2 29-45.4 9.5-4.6 19.7-6 30.1-3.9 8.4 1.7 15.4 5.6 20.3 12.8zM524.2 512c0 14.4 11.1 25.6 25.1 25.5 14.1-.1 24.8-11.1 24.9-25.7.1-14.6-10.9-25.7-25.5-25.6-14.2.1-24.5 10.9-24.5 25.8z"/><path fill="#35614F" d="M340.6 505.3c9.2 18.5 20.2 34 44.3 30.4v26.8c-22.6 0-42.2-5.6-55.5-25.4-4.9-7.3-9.6-14.7-15.1-23.2v48.2h-30.1V427.8c3.5 0 6.8-.2 10.1 0 12.2 1 19.7 9 19.8 21.4.1 14.2 0 28.3 0 42.5v6.3c8.1-10.5 15.6-19.6 22.2-29.2 3.9-5.7 8.2-8 15.1-7.5 8.4.7 16.9.2 26.5.2-12.9 15.1-25.2 29.6-37.3 43.8z"/><path fill="#36614F" d="M31.4 457.9H1c-4.1-19 4.8-30.3 23.6-30.3h69.6v30.1H65.9V562.5c-7-.4-13.5-.2-19.8-1.3-9-1.7-14.7-10.5-14.7-21.7-.1-25.3 0-50.7 0-76v-5.6zM273.4 489.6H244c-.9-6-5-7.6-10.4-7.3-3.4.2-6.9 1.4-7 5-.1 2.5 1.5 5.9 3.5 7.3 3.3 2.3 7.4 3.6 11.3 5 5.6 2 11.4 3.6 17 5.7 24.7 9.5 21.2 38.5 7.2 50.3-15.3 12.8-42.4 13.6-58.2 1.3-7.8-6.1-11.6-14.3-12.9-24.8h18.9c2.3 0 4.7.1 7 0 2.6-.2 4 .4 5.2 3.2 2.9 6.8 13.5 8.3 18.7 3 3.3-3.3 2.8-8.4-1.5-11.1-3.6-2.2-7.7-3.8-11.7-5.4-5.7-2.3-11.6-4.1-17.2-6.6-26.2-11.6-20.3-38.1-4.9-49.3 13.9-10.1 36.1-10.8 50.5-1.3 8.5 5.7 12.7 14.2 13.9 25z"/><path fill="#05984A" d="M922.9 428.2v33H942v23h-19.1v17.1c0 5.3-.1 10.7.1 16 .3 9.1 4.6 13.5 13.8 14.4 1.6.2 3.3.2 5.2.3v29.5c-18.5 4.5-42.5-11-47.5-31.2-1.3-5.3-1.7-10.9-1.8-16.3-.2-20.1-.1-40.3-.1-60.4.1-19.8 9.9-28.2 30.3-25.4z"/><path fill="#01984A" d="M880.8 461.9v100h-30v-5.4c0-23.3.6-46.6-.2-69.9-.7-22.2 14.9-27.3 30.2-24.7z"/><path fill="#36614F" d="M866.1 455.6c-8.9.1-15.8-6.8-15.9-15.6-.1-8.8 6.8-16 15.5-16.1 8.6-.1 15.9 7 16 15.8.1 8.7-6.8 15.8-15.6 15.9z"/><path fill="#386251" d="M645.3 158.3c0 5.2-3.8 9.1-9 9.2-6.7.1-13.1-6.1-13.1-13 0-5.6 3.7-9.2 9.5-9 6.7.2 12.6 6.1 12.6 12.8z"/></svg>